<?xml version="1.0" encoding="UTF-8"?>
<svg id="Layer_1" xmlns="http://www.w3.org/2000/svg" viewBox="0 0 375 375">
  <defs>
    <style>
      .cls-1 {
        fill: #fff;
      }
    </style>
  </defs>
  <path d="M.75,0h374.25v374.25H.75V0ZM73.29,241.09c19.3,0,38.13.3,56.95-.07,29.98-.6,54.03-13.38,72.16-37.04,21.98-28.68,22.08-70.99.34-99.83-18.55-24.61-43.52-36.99-74.26-37.49-17.46-.28-34.93-.06-52.39-.04-.94,0-1.89.18-2.81.27v174.21ZM162.83,238.77c.07.41.06.79.2,1.1,14.95,34.68,47.3,55.27,84.84,54.73,28.33-.41,51.25-12.86,69.65-34.01,1.16-1.34,1.9-3.51,1.92-5.31.14-16.46.09-32.92.08-49.38,0-1.18-.14-2.37-.2-3.41h-58.24v17.66h39.66c0,10.01-.15,19.6.08,29.18.08,3.18-.97,5.41-3.13,7.53-14.09,13.83-31.16,20.26-50.71,20.12-30.27-.22-52.32-13.8-65.68-41.14-.52-1.06-1.09-2.1-1.5-2.91-5.91,2.04-11.4,3.93-16.96,5.84ZM229.71,134.08c30.32-5.51,55.31,3.76,74.9,28.2,4.09-3.67,8.12-7.29,12.13-10.88-21.57-29.98-59.87-42.66-92.68-33.41,1.84,5.25,3.68,10.5,5.64,16.1Z"/>
  <path class="cls-1" d="M.75,0v374.25h374.25c-1,.25-2,.71-2.99.72-17.71.04-35.43.03-53.14.03H0C0,251.12,0,127.25.03,3.37c0-1.12.47-2.25.72-3.37Z"/>
  <path class="cls-1" d="M73.29,241.09V66.89c.92-.09,1.86-.27,2.81-.27,17.46-.01,34.93-.24,52.39.04,30.74.5,55.7,12.88,74.26,37.49,21.74,28.84,21.63,71.15-.34,99.83-18.13,23.67-42.18,36.45-72.16,37.04-18.82.37-37.65.07-56.95.07ZM92.16,83.98v139.57c13.4,0,26.49.38,39.55-.16,6.64-.27,13.21-2.21,19.82-3.39,4.17-.74,6.31-2.71,4.95-7.32-.48-1.63-.21-3.47-.27-5.22-.71-20.13,4.83-38.39,16.47-54.8,6.33-8.93,14.1-16.43,23.2-22.67-.25-.86-.36-1.59-.66-2.25-10.42-23.34-28.13-38.09-53.28-42.18-12.81-2.08-26.1-1.18-39.17-1.57-3.46-.1-6.93-.02-10.6-.02ZM200.1,149.46c-15.69,10.89-29.86,44.62-24.34,57.43,17.1-15.25,25.21-34.08,24.34-57.43Z"/>
  <path class="cls-1" d="M162.83,238.77c5.56-1.91,11.05-3.8,16.96-5.84.42.81.98,1.85,1.5,2.91,13.36,27.34,35.41,40.92,65.68,41.14,19.55.14,36.62-6.28,50.71-20.12,2.16-2.12,3.2-4.35,3.13-7.53-.24-9.58-.08-19.17-.08-29.18h-39.66v-17.66h58.24c.07,1.05.2,2.23.2,3.41.01,16.46.07,32.92-.08,49.38-.02,1.79-.76,3.97-1.92,5.31-18.4,21.15-41.32,33.6-69.65,34.01-37.54.54-69.9-20.06-84.84-54.73-.14-.31-.13-.69-.2-1.1Z"/>
  <path class="cls-1" d="M229.71,134.08c-1.96-5.6-3.8-10.85-5.64-16.1,32.8-9.24,71.11,3.43,92.68,33.41-4.01,3.6-8.04,7.22-12.13,10.88-19.59-24.44-44.59-33.71-74.9-28.2Z"/>
  <path d="M92.16,83.98c3.67,0,7.13-.09,10.6.02,13.07.39,26.37-.51,39.17,1.57,25.16,4.09,42.87,18.84,53.28,42.18.29.66.41,1.39.66,2.25-9.09,6.24-16.86,13.74-23.2,22.67-11.64,16.41-17.17,34.67-16.47,54.8.06,1.75-.2,3.59.27,5.22,1.35,4.61-.78,6.58-4.95,7.32-6.61,1.17-13.18,3.11-19.82,3.39-13.06.54-26.15.16-39.55.16V83.98Z"/>
  <path d="M200.1,149.46c.87,23.36-7.24,42.18-24.34,57.43-5.52-12.81,8.66-46.54,24.34-57.43Z"/>
</svg>